<?xml version="1.0" encoding="UTF-8"?>
<svg version="1.1" viewBox="0 0 1200 1200" width="1280" height="1280" xmlns="http://www.w3.org/2000/svg">
<path transform="translate(563,72)" d="m0 0h48v18l-9 159-5 106-3 80-2 77-1 73v63l1 72 2 71 4 92 6 102 8 113 2 29-1 1h-45l-8-1-2-5-13-70-12-72-10-68-8-64-6-60-4-53-2-37-1-27-1-48v-36l1-51 3-68-6 57-5 65-2 37-1 28v103l2 48 4 55 6 57 7 52 7 45 10 56 10 50v4l-14-1-24-4-3-5-19-54-19-56-14-43-15-50-13-47-13-52-11-52-8-46-6-44-4-38-3-44-1-25v-76l-3 37-2 42v70l2 40 4 45 5 40 7 43 9 45 12 50 12 43 11 36 16 49 14 39 17 45v3l-12-2-35-9-7-3-6-9-14-26-12-22-15-30-13-28-16-37-13-33-12-34-10-31-12-44-9-41-7-41-4-31-3-34-1-18v-79l3-43 5-43 6-38 10-50 9-37 10-37 12-39 12-36 13-37 17-44 17-41 5-5 28-11 37-12 24-6h4l-1 8-13 65-10 56-9 57-8 61-6 62-3 48-1 23-1 57 1 47 1-3 5-54 7-57 10-65 10-57 11-57 13-64 17-79 12-54 3-2 26-3z"/>
<path transform="translate(639,74)" d="m0 0 14 1 32 5 9 2 3 17 12 80 18 108 29 162 13 76 4 27v-37l-3-67-5-69-7-73-8-69-10-76-9-62v-8l21 6 30 10 3 7 14 52 16 64 12 54 10 50 9 54 7 53 5 51 2 31 1 23v90l-3 52-5 51-7 51-9 53-10 49-12 53-14 55-16 58-12 41-3 3-35 10-14 3 1-18 5-65 2-38 1-29v-116l-3-68-4-55-5-53-1-9-3 93-4 84-5 83-8 111-6 77-1 8-4 2-32 4-15 1-1-12-3-121-2-103-1-74v-326l2-156 4-230z"/>
<path transform="translate(845,120)" d="m0 0 9 3 12 9 15 13 13 12 12 11 32 30 8 8 8 7 32 32 7 8 10 11 9 11 13 16 14 19 16 24 15 25 15 29 12 27 7 18v5l-80-3-14-1-3-8-10-34-11-32-12-29-8-16-7-12-9-10-6-2h-3v13l5 22 10 33 10 32 11 31 10 21 10 15 11 14 12 14 13 14 7 8 12 14 9 11 14 18 12 17 12 19 11 21 8 21 4 17 2 19v18l-2 22-5 26-6 21-6 18-10 24-8 16-13 25-12 20-17 25-12 16-13 16-9 11-9 10-7 8-12 13-34 34-8 7-8 8-8 7-17 16-13 12-8 8-8 7-8 8-8 7-12 11-13 9-2 1h-6l-3-4-1-5v-19l4-37 7-40 9-42 18-81 12-58 8-46 3-17 1-1 72-2h21l-2 12-11 44-14 45-18 50-8 24-1 11 3 3 6-2 8-7 9-12 8-13 10-18 12-27 9-24 6-18 6-23 2-12 1-18-3-16-8-22-13-27-14-24-13-22-17-28-12-22-7-14-9-24-11-38-9-41-11-58-11-60-14-72-10-51-6-38-3-26-1-14v-19l3-12 2-3z"/>
<path transform="translate(576,16)" d="m0 0h48l31 2 39 5 40 8 30 8 36 12 24 9 33 15 27 14 27 16 12 8 16 11 16 12 14 11 13 11 10 9 8 7 31 31 7 8 13 15 11 14 12 16 16 23 12 20 11 19 14 27 11 24 11 28 11 33 10 38 7 36 4 28 3 39v56l-3 38-6 40-8 36-8 29-13 38-13 31-14 29-12 22-16 26-13 19-14 19-13 16-9 11-12 13-7 8-25 25-8 7-10 9-11 9-14 11-19 14-21 14-25 15-22 12-24 12-31 13-28 10-29 9-32 8-33 6-30 4-24 2-22 1h-30l-36-2-28-3-35-6-27-6-29-8-33-11-30-12-34-16-22-12-25-15-25-17-19-14-17-14-14-12-13-12-30-30-7-8-12-14-12-15-14-19-18-27-12-20-12-22-13-26-12-28-12-34-8-26-8-33-6-32-4-31-2-25v-69l3-34 6-40 9-40 9-30 8-24 12-30 16-34 13-24 14-23 10-15 12-17 13-17 9-11 12-14 11-12 14-15 8-8 8-7 14-13 11-9 15-12 19-14 27-18 15-9 25-14 26-13 36-15 25-9 34-10 30-7 26-5 30-4 22-2zm8 28-34 2-33 4-33 6-25 6-25 7-32 11-29 12-35 17-23 13-19 12-19 13-19 14-13 11-10 8-15 14-8 7-17 17-7 8-11 12-11 14-9 11-13 18-14 21-15 25-12 23-8 16-11 25-11 30-8 25-9 36-5 26-4 27-3 37v57l3 36 4 28 7 35 8 30 12 36 13 32 14 29 10 19 15 25 8 12 12 17 12 16 11 13 9 11 12 13 16 17 8 7 8 8 8 7 13 11 14 11 19 14 18 12 18 11 21 12 32 16 34 14 38 13 30 8 35 7 27 4 34 3 26 1h15l39-2 35-4 33-6 40-10 36-12 28-11 26-12 29-15 20-12 27-18 19-14 17-14 14-12 13-12 26-26 7-8 12-14 12-15 13-18 11-16 12-19 13-23 9-17 14-31 10-26 11-33 8-30 7-36 4-28 3-40v-45l-2-30-4-33-7-36-8-32-12-37-13-32-12-26-12-23-10-17-12-19-14-20-13-17-9-11-12-14-11-12-10-10-6-7-8-7-7-7-8-7-14-12-13-10-16-12-24-16-25-15-28-15-31-14-31-12-35-11-33-8-33-6-33-4-35-2z"/>
<path transform="translate(320,149)" d="m0 0 2 1-16 28-13 24-17 33-16 34-14 33-14 37-12 35-12 42-9 38-8 45-4 32-3 38v70l3 38 5 37 7 36 10 40 11 35 11 30 11 26 9 20 5 2 42 1 8 1 5 10 11 26 11 24 12 25 18 35 14 24 10 18 13 21 4 6v2l-11-3-34-13-29-13-26-13-17-14-11-9-11-10-8-7-17-16-12-12-7-8-12-13-9-11-13-16-14-19-14-21-15-25-12-22-14-29-12-30-11-33-7-26-7-34-5-37-2-26v-57l3-35 5-33 7-34 8-29 12-36 11-28 16-34 15-28 14-23 16-24 13-18 11-14 9-11 12-14 11-12 6-7 17-12 30-20 21-13z"/>
</svg>
