<?xml version="1.0" encoding="UTF-8"?>
<svg version="1.1" viewBox="0 0 1200 1200" width="1280" height="1280" xmlns="http://www.w3.org/2000/svg">
<path transform="translate(578,19)" d="m0 0h45l30 2 33 4 16 2 36 8 29 8 36 12 28 11 32 15 22 12 27 16 15 10 17 12 17 13 17 14 11 10 8 7 8 8 8 7 14 15 13 14 9 11 13 16 13 18 13 19 13 21 14 25 15 30 13 31 12 34 8 28 7 30 6 33 4 34 2 36v31l-2 36-4 34-7 38-9 36-10 32-11 29-12 27-15 30-14 24-10 16-13 19-14 19-18 22-11 12-7 8-7 7-7 8-15 14-14 13-11 9-16 13-18 13-13 9-17 11-24 14-24 13-26 12-27 11-35 12-33 9-33 7-33 5-31 3-20 1h-41l-33-2-40-5-40-8-34-9-33-11-32-13-26-12-25-13-28-17-21-14-14-10-13-10-11-9-13-11-24-22-17-17-7-8-10-11-9-11-12-15-13-18-18-27-9-15-9-16-12-23-9-19-11-27-11-31-9-32-7-30-6-35-4-37-1-17v-52l2-29 4-33 6-33 7-29 9-31 11-31 12-28 14-29 12-22 14-23 8-12 12-17 13-17 9-11 11-13 22-24 16-16 8-7 12-11 11-9 15-12 18-13 27-18 22-13 28-15 28-13 33-13 37-12 36-9 38-7 24-3 21-2zm9 32-1 57-4 379-3 220-5 292-2 102-1 47 2 2h21l5-59 9-125 6-98 4-82 3-83 2-94v-130l-2-98-4-108-6-116-6-97-1-9zm52 1 1 9 23 80 21 71 18 60 16 55 18 65 15 60 13 59 2 1-1-21-5-48-7-49-8-45-10-47-16-64-15-53-20-63-16-47-8-21-16-2zm-118 4-12 2-4 4-14 42-14 47-13 50-10 43-9 46-8 49-6 48-4 43-3 51-1 30v23h2l10-73 10-60 9-47 14-64 12-50 16-63 21-77 12-42v-2zm172 3 2 5 14 25 10 18 13 24 20 39 17 36 13 30 14 35 11 30 14 43 12 44 9 41 6 34 5 36 4 44 1 20v77l-3 45-4 38-6 41-8 43-11 47-13 52-14 47-14 42-14 39-15 39-17 42-7 17v2l10-2 25-7 25-9 2-3 5-28 9-38 10-37 21-70 14-50 13-50 11-48 8-42 5-31 1-2 3-1 66-7 33-4-4 24-9 41-9 33-12 38-18 50-11 30-3 12v9l3 3 7-1 9-7 10-12 10-15 10-18 8-16 9-20 11-29 10-32 7-30 3-19 1-12v-11l-2-14-5-16-8-20-10-21-14-24-16-26-18-27-12-19-14-22-12-23-10-23-16-42-17-50-15-43-12-34-17-43-15-35-16-35-20-41-17-34-10-19-13-24-13-22-5-3-20-4zm-256 16-32 11-19 8-14 12-10 10-8 7-11 11-7 8-13 14-9 11-14 17-14 19-8 10-12 19-9 15-12 21-14 27-11 22-13 31-11 30-9 28-10 38-8 40-5 35-3 34-1 20v47l2 34 4 36 6 37 9 40 10 35 12 36 12 30 15 33 5 8 1 1h52l5 10 10 23 16 34 14 27 14 24 9 16 14 22 16 24 14 20 6 5 5 2h3l-2-5-15-24-15-26-10-18-15-28-16-33-14-32-12-30-13-36-11-35-11-41-9-41-6-35-5-39-3-36-1-21v-61l2-35 5-46 7-43 9-42 11-41 16-49 16-41 13-29 12-25 10-20 13-23 9-16 15-24 20-30 10-14 14-19 2-4zm428 107-2 4 4 11 9 17 26 42 15 25 19 32 12 19 12 16 14 15 8 8 8 7 14 12 11 9 14 12 8 7 12 11 8 7 20 20 7 8 12 14 15 20 12 19 11 21 8 22 5 21 2 6h1v-13l-2-26-4-33-7-36-8-31-9-28-10-27-12-27-15-30-14-24-7-10-8 1-40 14-32 10-4-1-16-30-14-23-10-15-12-17-12-16-12-14-9-10-11-11-10-7zm-369 259-5 38-6 57-5 60-3 48-2 47-1 50v46l1 44 3 64 5 65 7 66 7 53 8 52 2 11 7 2 11 1-1-13-9-77-8-78-6-69-5-73-3-60-2-64v-119l2-62 4-72v-17zm-133 4-4 24-5 43-3 39-1 19-1 39v19l1 38 3 48 5 48 7 48 9 49 11 49 12 46 14 47 13 40 15 42 15 39 5 10 15 4h2l-3-11-21-64-18-59-17-60-16-63-12-54-10-53-8-53-5-42-4-49-2-46v-55l2-45 2-27v-10zm347 197-1 2-4 77-5 61-7 65-7 52-11 73-13 74-14 72-5 25v5l2 1 27-3 3-3 11-51 10-54 8-53 6-50 4-45 3-57v-102l-3-57-3-32z"/>
</svg>
