<?xml version="1.0" encoding="UTF-8"?>
<svg version="1.1" viewBox="0 0 2048 2048" width="1280" height="1280" xmlns="http://www.w3.org/2000/svg">
<path transform="translate(520,724)" d="m0 0 16 1 93 10 34 3 3 1 1 3 3 35 5 40 9 53 9 41 11 44 14 47 14 44 17 48 16 43 6 15 3 10 2 1 2-12 13-45 12-39 13-38 8-24 14-38 17-45 19-49 15-38 9-24 11-35 6-23h43l103 1 1 4-1 24-1 1-24 4-14 4-10 5-5 5-5 8-4 16-1 12-3 88-1 46-1 108v33l1 108 1 14 4 13 7 9 9 7 14 5 26 5v28l-1 1-111 1-81 2-1-1-2-28 36-6 11-4 10-9 7-14 2-13v-18l-2-61-1-72v-50l1-69 2-57 3-64v-11l-3 1-12 29-15 39-17 43-11 29-16 43-15 42-14 42-9 30-7 23-12 45-11 48-11 57-4 2h-10l-5-8-8-19-12-29-16-39-13-32-14-36-10-27-11-30-17-50-11-37-10-36-11-47-8-42-7-51-1-14-3 1-5 28-7 49-5 49-3 47v99l2 36 3 34 5 36 6 28 7 21 9 19 7 9v2l4 2 9 6 12 5 24 7 13 3 2 5 4 22-1 4-74 7-70 8-22 3h-5l-7-24-2-9 7-3 21-8 10-6 5-5 5-7 5-15 1-9v-26l-4-45-4-37-3-33-2-31v-98l3-45 5-46 5-40 1-10v-21l-4-20-5-12-8-10-11-8-13-6-11-3 1-9 6-23z" fill="#1A1D1F"/>
<path transform="translate(1583,718)" d="m0 0h7l3 24v9l-28 12-14 8-8 6-6 10-4 11-3 19-1 19v29l2 64v83l-3 63-4 46-5 43-5 36-10 58-12 58-5 19-1 2-11-2-14-1-3-9-10-35-12-36-11-29-18-42-17-35-10-20-12-22-16-28-14-24-17-28-15-24-12-19-11-17-13-20-22-34-13-20-11-17-8-12v-2h-2l1 4v133l-1 60-3 85v59l2 19 4 17 7 14 4 5 13 8 18 8 21 7 1 4-3 24-3 3-45-3-95-4-36-1-1-1v-12l1-16 26-7 19-7 9-6 6-7 7-14 5-16 4-29 2-26 3-71 1-37 1-60v-118l-2-19-5-21-8-16-6-8-14-11-19-10-17-6-10-2-2-3 1-26 1-1 75-2 53-2 4 5 8 14 12 19 14 22 33 51 32 49 16 25 11 17 14 22 15 24 14 23 9 15 14 24 16 29 14 27 8 15 13 28 8 18v2h2v-10l5-46 4-51 2-36 1-36v-57l-1-37-2-32-4-31-6-25-6-15-6-10-9-7-16-7-27-7-13-2-1-1-2-25v-5l1-1 100-10z" fill="#1A1D1F"/>
<path transform="translate(1908,663)" d="m0 0 3 1 7 34 10 55 8 53 5 38 5 52 1 17-1 1-26 1-4-13-9-31-9-29-11-27-9-19-11-19-10-14-9-11-11-11-14-11-12-6-16-4h-14l-16 3-10 4-10 8-8 8-10 16-7 16-5 18-2 18 1 24 4 24 6 21 7 16 10 16 14 15 10 8 14 9 21 12 41 21 23 13 16 10 17 13 10 8 13 13 12 17 8 17 5 15 4 22v35l-4 27-7 29-10 30-11 24-11 20-14 21-9 12-12 14-7 8-13 13-11 9-15 12-14 9-23 12-21 5-6 2h-20l-19-4-15-5-10-5-13-10-10-9-17-17-13-18-3-4-21 31-3 3-23-3 2-10 12-50 12-59 6-36 5-34 4-33 1-1 26 1 2 18 4 41 4 27 5 27 8 29 8 21 8 15 10 15 9 9 9 6 16 5 13 2h14l15-4 16-8 13-10 11-11 10-13 10-17 8-16 9-24 6-22 3-16 1-11v-20l-3-22-5-16-9-17-10-11v-2l-4-2-15-11-26-15-25-14-28-16-18-12-12-9-13-12-12-13-10-14-8-14-7-16-7-22-5-27-3-33v-18l2-24 4-21 8-27 13-30 9-15 12-17 7-8h2l2-4 8-8 17-12 14-7 16-5 17-2h14l15 3 18 6 19 10 21 14 8 6 4-31 2-11 19-4z" fill="#1A1D1F"/>
<path transform="translate(178,662)" d="m0 0 16 4 50 11 93 18 8 1 1 3-11 32-2 3-21 2-22 5-11 7-8 9-11 21-8 24-10 38-9 41-7 41-5 44-2 30v58l2 31 4 38 7 43 8 37 8 32 8 27 8 21 8 16 8 10 7 6 7 4 11 2h16l35-5 20-5 16-6 15-9 6-8 4-11 7-30 15-73 5-26h23l2 19 5 44 5 35 10 54 8 34-1 3-25 4-64 10-57 10-82 16-68 15-15 4h-6l-10-23-6-15v-4l8-3 16-8 8-6 4-9 1-7v-9l-3-17-7-25-10-33-10-38-6-27-7-38-5-38-3-37v-66l3-37 5-38 8-43 9-37 11-40 6-21 3-16v-17l-4-11-6-9-12-12-10-6-1-1 1-9 12-28z" fill="#1A1D1F"/>
<path transform="translate(178,662)" d="m0 0 16 4 50 11 93 18v1l-12-1-39-7-32-6-28-6-36-8-11-4z" fill="#FEFEFE"/>
<path transform="translate(197,1333)" d="m0 0 1 3-6 7-21 12h-8l20-10 10-6z" fill="#FEFEFE"/>
<path transform="translate(161,702)" d="m0 0 1 2 5 1 4 4 8 7 5 4 5 7-1 2-9-10-7-7-10-6z" fill="#FEFEFE"/>
</svg>
