<?xml version="1.0" encoding="UTF-8"?>
<svg version="1.1" viewBox="0 0 2400 2400" width="1280" height="1280" xmlns="http://www.w3.org/2000/svg">
<path transform="translate(636,878)" d="m0 0 82 9 93 9 22 2 3 1 1 2 5 46 7 47 10 53 11 49 12 47 15 52 15 49 12 36 5 16v2h2l2-11 7-26 14-47 13-42 14-43 14-41 19-55 12-33 11-35 9-36 4-18h44l40 1 114 1 1 1v32l-27 6-15 5-9 6-6 7-3 8-2 14-1 159v63l1 184 1 26 3 13 6 9 8 7 11 5 21 6 12 3 1 1v32l-3 1-137 1-87 3h-13l-2-2-2-32 16-4 23-6 12-6 6-5 5-9 3-9v-48l-2-64-1-52v-157l1-48 2-69v-10l-15 43-13 37-26 77-16 49-14 45-10 34-7 25-13 50-12 52-9 46-8 47-1 8-2 2-20 2-18 1-3-5-14-37-12-30-20-52-17-46-14-40-12-36-13-42-14-50-9-36-8-35-10-54-7-49-4-31-9 70-5 51-3 41-1 24v100l2 41 4 48 4 30 5 27 6 23 7 18 8 15 11 12 11 7 15 6 23 7 9 2 2 3 5 32-5 2-78 8-81 10-15 2h-6l-3-9-7-27v-3l19-7 16-9 10-9 6-9 4-16 1-8v-26l-5-59-5-50-3-43-1-25v-87l2-40 4-48 5-46 1-14v-21l-2-16-5-15-6-10-9-10-12-7-21-7-1-1 1-8 6-27zm93 78 1 2zm343 23 1 3z"/>
<path transform="translate(2139,811)" d="m0 0h5l8 20 15 40 11 31 16 52 10 38 9 41 6 32 3 20-1 2-11 1h-16l-4-9-16-39-17-35-14-26-13-21-12-17-11-14-14-15-9-9-13-10-16-10-13-5-8-2h-19l-12 3-10 5-9 8-7 10-8 20-4 22v30l4 24 5 19 8 20 9 15 8 10 13 13 15 11 13 8 23 12 28 13 29 14 16 8 19 10 19 13 11 9 7 6v2l4 2 7 8 10 13 9 15 8 17 6 18 4 17 3 21v43l-5 36-6 26-9 27-9 21-8 17-11 19-13 20-8 11-9 11-11 13-12 12h-2l-2 4-14 11-13 10-16 10-15 8-21 8-21 5-8 1h-23l-19-3-20-6-16-7-14-8-14-11-15-14-11-11-10-13-8-10-4 2-5 5-6 7h-2l-2 4-8 8-3 4-13-1-12-2-2-1 1-7 10-40 9-41 8-43 6-40 5-41 3-36 1-1h16l13 1 2 9 11 57 10 46 11 40 8 23 11 24 9 15 8 10 9 8 12 6 14 4 18 1 16-3 12-5 11-6 7-6h2v-2l8-7 10-11 9-13 10-17 9-21 6-19 5-25 1-19-2-18-5-16-8-16-10-13-9-9-13-10-19-12-28-16-25-14-27-16-15-10-16-13-13-13-13-17-10-16-10-19-10-25-6-19-7-28-5-31-3-37 1-29 2-20 6-32 10-31 5-12 11-19 13-17 14-14 15-11 16-8 14-5 15-3 10-1h14l18 2 19 5 24 9 27 13 9 5 1-2 2-25 2-10z"/>
<path transform="translate(1792,874)" d="m0 0h6l3 9 6 24 1 5-16 6-16 7-12 11-6 9-5 16-1 8v41l5 61 3 34 3 55v84l-2 39-3 39-5 44-7 49-8 45-8 39-8 36-2 3-50-6-4-2-10-31-13-38-13-33-13-30-14-30-19-38-12-22-13-23-14-24-12-20-24-38-16-25-44-66-10-14-10-15-20-28-1-1 2 62 1 57v54l-1 60-1 30v75l2 18 4 17 4 10 6 9 8 7 16 9 17 8 10 4 2 2-2 20-1 12-3 2-98-5-88-3-3-2 1-31 3-2 20-4 15-5 12-6 11-9 7-11 6-16 4-19 3-25 2-35 1-25 1-54v-116l-1-48-2-48-3-21-4-15-7-16-9-13-11-11-15-10-16-7-17-6-2-2v-33l167-6 5 5 7 11 14 19 39 54 12 17 13 18 36 51 14 20 48 72 14 22 17 28 14 24 11 20 13 23 10 20 3 3v-11l3-55v-98l-4-63-4-37-5-28-7-26-6-15-8-15-11-12-14-8-15-6-20-6-9-2-2-5-4-23-1-8 1-1 96-10z"/>
<path transform="translate(232,806)" d="m0 0 9 1 91 20 65 13 56 10 3 1-1 6-9 31-3 5-32 3-14 3-10 5-8 7-7 11-7 16-6 21-8 35-6 29-8 51-4 36-3 45v82l3 43 5 43 6 38 7 36 8 35 8 27 6 17 8 17 9 13 10 7 10 4 5 1h25l26-4 17-4 24-8 10-6 6-5 5-8 5-15 8-34 13-67 7-39 2-4 23-1 2 4 2 28 4 37 7 48 8 46 11 49 1 4-5 3-76 12-57 10-67 13-64 14-54 13-48 12-5-1-11-27-8-19v-2l23-11 11-8 5-8 2-7v-19l-4-20-12-42-8-29-8-34-9-47-7-49-4-46-1-21v-63l2-34 4-40 6-40 7-38 10-43 11-44 1-7v-18l-3-10-6-11-10-10-21-14 1-7 14-35z"/>
<path transform="translate(2235,637)" d="m0 0 4 1 1 2 1 13 6 17 8 14 12 14 15 12 17 9 8 3 16 2 5 3v4l-9 3-16 4-12 5-11 7-10 8h-2v2l-5 5-9 11-9 17-3 9-2 15-2 3-5-1-4-20-7-16-10-15-8-9-15-11-15-8-13-4-16-4-2-4 6-4 15-2 15-6 12-7 10-8 11-11 9-13 6-12 4-12 1-13z"/>
<path transform="translate(2327,592)" d="m0 0 4 2 6 16 6 9 10 9 8 4 12 3-1 3-14 4-9 6-8 8-5 9-4 11-3 6-3-3-6-17-8-11-8-6-6-3-14-4 1-4 11-3 12-6 5-5 6-8 4-7z"/>
<path transform="translate(730,968)" d="m0 0"/>
<path transform="translate(1408,1055)" d="m0 0"/>
</svg>
