<?xml version="1.0" encoding="UTF-8"?>
<svg version="1.1" viewBox="0 0 1200 1200" width="1280" height="1280" xmlns="http://www.w3.org/2000/svg">
<path transform="translate(374,390)" d="m0 0 8 1 30 7 37 7 13 2v14l-2 29-1 24v59l2 36 2 16 6-41 9-48 11-51 8-32 5-1 34 3 44 2 13 1-3 79-1 40v144l2 70 1 25v14l-51 2h-13l-1-1-5-48-4-55-2-51v-83l-7 53-4 39-3 49v99l-1 1-35 4h-9l-12-42-9-35-9-39-7-37-5-34-4-41-1-17-1 10-1 25v36l2 39 4 39 6 40 7 37 4 19v5l-50 10-9 2-3-7-11-41-7-30-7-38-4-29-2-22-1-18v-50l2-28 4-34 7-39 7-31 11-42 5-16z"/>
<path transform="translate(912,362)" d="m0 0h9l15 3 10 4 13 9 12 12 8 13 8 18 8 27 7 34 3 21v8l-12 2-52 5h-9l-1-1-5-40-4-17-4-8-4-2-7 1-4 5-2 7v20l3 20 5 16 6 9 9 9 12 9 13 10 13 11 12 11 10 10 11 14 9 15 5 15 3 16 1 12v25l-2 22-4 26-6 27-9 27-8 16-9 13-12 12-14 9-13 5-10 2h-14l-14-3-13-5-9-5-12-9-9-9-10-14-8-15-5-16-2-12-1-14v-21l2-39 1-16 1-6 52 2 21 1 2 1v10l-6 60v11l3 9 7 3 8-2 6-9 4-12 3-20 1-12v-13l-2-14-4-8-8-10-11-12-13-13-8-7-13-12-12-11-9-9-9-14-7-15-5-16-4-22-3-35v-37l3-20 5-15 6-12 10-14 10-10 13-9 8-4 14-5 8-2z"/>
<path transform="translate(788,401)" d="m0 0 3 1 4 30 5 47 4 56 1 22v94l-3 53-5 53-6 48-13-1-44-6-8-1-2-3-7-47-8-43-12-54-6-24-2 92-3 74-1 1-62-3-1-20-1-133v-44l1-127 1-48 5-1 45-2h13l5 16 19 64 21 70 4 14v-41l-3-65-4-56v-6l7-2 42-6z"/>
<path transform="translate(258,349)" d="m0 0 6 1 20 9 34 13 1 2-13 37-12 38-12 48-6 32-4 32-2 36v21l2 33 4 32 6 33 4 19 10-2 31-4h4l4 15 10 39 10 33v4l-24 7-37 12-34 13-6 2-9-20-14-35-13-36-10-33-7-28-6-33-3-25-1-13v-50l3-30 5-30 7-31 9-31 11-33 14-36 14-33z"/>
<path transform="translate(1055,297)" d="m0 0 1 3-5 16v3l38 1-3 3-26 12-17 8-8 25-4-2-9-12-9 3-34 16v-3l22-22 8-7 1-2-9-12-4-5v-2l36-1zm-10 17-11 10-22 2 2 5 4 5-1 4-13 12-2 3 5-1 16-7 4 1 5 6h2l5-15 26-12v-1l-21-1 2-11z"/>
</svg>
